<svg width="284" height="284" viewBox="0 0 284 284" fill="none" xmlns="http://www.w3.org/2000/svg">
<path d="M64.8347 206.835C100.642 206.835 129.669 177.807 129.669 142C129.669 106.193 100.642 77.1653 64.8347 77.1653C29.0275 77.1653 0 106.193 0 142C0 177.807 29.0275 206.835 64.8347 206.835Z" fill="black"/>
<path d="M219.165 206.835C254.972 206.835 284 177.807 284 142C284 106.193 254.972 77.1653 219.165 77.1653C183.358 77.1653 154.331 106.193 154.331 142C154.331 177.807 183.358 206.835 219.165 206.835Z" fill="black"/>
<path d="M142 284C177.807 284 206.835 254.972 206.835 219.165C206.835 183.358 177.807 154.331 142 154.331C106.193 154.331 77.1653 183.358 77.1653 219.165C77.1653 254.972 106.193 284 142 284Z" fill="black"/>
<path d="M142 129.669C177.807 129.669 206.835 100.642 206.835 64.8347C206.835 29.0275 177.807 0 142 0C106.193 0 77.1653 29.0275 77.1653 64.8347C77.1653 100.642 106.193 129.669 142 129.669Z" fill="black"/>
<path d="M64.8347 204.448C99.3239 204.448 127.283 176.489 127.283 142C127.283 107.511 99.3239 79.5518 64.8347 79.5518C30.3456 79.5518 2.38657 107.511 2.38657 142C2.38657 176.489 30.3456 204.448 64.8347 204.448Z" fill="black"/>
<path d="M219.165 204.448C253.654 204.448 281.613 176.489 281.613 142C281.613 107.511 253.654 79.5518 219.165 79.5518C184.676 79.5518 156.717 107.511 156.717 142C156.717 176.489 184.676 204.448 219.165 204.448Z" fill="black"/>
<path d="M142 281.613C176.489 281.613 204.448 253.654 204.448 219.165C204.448 184.676 176.489 156.717 142 156.717C107.511 156.717 79.5518 184.676 79.5518 219.165C79.5518 253.654 107.511 281.613 142 281.613Z" fill="black"/>
<path d="M142 127.283C176.489 127.283 204.448 99.3239 204.448 64.8347C204.448 30.3456 176.489 2.38657 142 2.38657C107.511 2.38657 79.5518 30.3456 79.5518 64.8347C79.5518 99.3239 107.511 127.283 142 127.283Z" fill="black"/>
<path d="M64.8347 199.277C96.4681 199.277 122.112 173.633 122.112 142C122.112 110.367 96.4681 84.7227 64.8347 84.7227C33.2013 84.7227 7.55742 110.367 7.55742 142C7.55742 173.633 33.2013 199.277 64.8347 199.277Z" fill="black"/>
<path d="M219.165 199.277C250.799 199.277 276.443 173.633 276.443 142C276.443 110.367 250.799 84.7227 219.165 84.7227C187.532 84.7227 161.888 110.367 161.888 142C161.888 173.633 187.532 199.277 219.165 199.277Z" fill="black"/>
<path d="M142 276.443C173.633 276.443 199.277 250.799 199.277 219.165C199.277 187.532 173.633 161.888 142 161.888C110.367 161.888 84.7227 187.532 84.7227 219.165C84.7227 250.799 110.367 276.443 142 276.443Z" fill="black"/>
<path d="M142 122.112C173.633 122.112 199.277 96.4681 199.277 64.8347C199.277 33.2013 173.633 7.55742 142 7.55742C110.367 7.55742 84.7227 33.2013 84.7227 64.8347C84.7227 96.4681 110.367 122.112 142 122.112Z" fill="black"/>
<path d="M64.8347 196.891C95.1501 196.891 119.725 172.315 119.725 142C119.725 111.685 95.1501 87.1093 64.8347 87.1093C34.5194 87.1093 9.94397 111.685 9.94397 142C9.94397 172.315 34.5194 196.891 64.8347 196.891Z" fill="#FFEA00"/>
<path d="M219.165 196.891C249.481 196.891 274.056 172.315 274.056 142C274.056 111.685 249.481 87.1093 219.165 87.1093C188.85 87.1093 164.275 111.685 164.275 142C164.275 172.315 188.85 196.891 219.165 196.891Z" fill="#FFEA00"/>
<path d="M142 274.056C172.315 274.056 196.891 249.481 196.891 219.165C196.891 188.85 172.315 164.275 142 164.275C111.685 164.275 87.1092 188.85 87.1092 219.165C87.1092 249.481 111.685 274.056 142 274.056Z" fill="#FFEA00"/>
<path d="M142 119.726C172.315 119.726 196.891 95.1501 196.891 64.8348C196.891 34.5195 172.315 9.94403 142 9.94403C111.685 9.94403 87.1092 34.5195 87.1092 64.8348C87.1092 95.1501 111.685 119.726 142 119.726Z" fill="#FFEA00"/>
<path d="M142 196.891C172.315 196.891 196.891 172.315 196.891 142C196.891 111.685 172.315 87.1093 142 87.1093C111.685 87.1093 87.1092 111.685 87.1092 142C87.1092 172.315 111.685 196.891 142 196.891Z" fill="#FFEA00"/>
</svg>
