<?xml version="1.0" encoding="UTF-8"?> <!-- Generator: Adobe Illustrator 24.3.0, SVG Export Plug-In . SVG Version: 6.00 Build 0) --> <svg xmlns="http://www.w3.org/2000/svg" xmlns:xlink="http://www.w3.org/1999/xlink" version="1.1" id="Layer_1" x="0px" y="0px" viewBox="0 0 300 204" style="enable-background:new 0 0 300 204;" xml:space="preserve"> <style type="text/css"> .st0{fill:url(#Shape_2_);} .st1{fill:url(#Shape_3_);} </style> <g id="Group" transform="translate(262.000000, 0.000000)"> <linearGradient id="Shape_2_" gradientUnits="userSpaceOnUse" x1="-261.6702" y1="192.0898" x2="-261.6702" y2="191.0912" gradientTransform="matrix(215.3494 0 0 -88.1047 56269.1172 17032.1992)"> <stop offset="0" style="stop-color:#A99084"></stop> <stop offset="1" style="stop-color:#67403A"></stop> </linearGradient> <path id="Shape" class="st0" d="M-80.6,108.2h12.9l-3.2,3.9c-2.9,3.2-3.9,6.6-3.2,9.7c0.7,3.8,4.5,7.4,10.8,7.4 c8.1,0,15.8-5,22.1-12.6c5.7-6.8,7-8.4,7-8.4h9.9c0,0-3.8,4.8-9.3,11.7c-9.5,11.8-22.2,18.5-35.3,18.5c-10.9,0-16.5-6.3-17.9-12.4 C-89,119.1-84.7,113-80.6,108.2z M-148.8,145.2c5.2,16.1,23.5,31.2,54,31.2c36.1,0,66.4-15.6,88.2-44.5 c15.2-20.1,17.8-23.5,17.8-23.5H2.8c0,0-7,9.2-16.1,20.6c-20.3,25.7-44.8,37.9-76.4,37.9c-25.6,0-38-13.3-42-26.7 c-2.9-9.7-0.9-20.5,5.6-31.8h-16.7C-150,121.3-152.4,133.9-148.8,145.2z M-115.9,134.9c2.9,10.9,13.5,22.3,34.1,22.3 c24.6,0,45.9-10.2,62.2-31c9.3-12,14-17.8,14-17.8h-9.1c0,0-5.6,7.2-12,14.9c-14,16.9-30.1,24.6-49.7,24.6 c-15.6,0-22.4-9-24.6-17.4c-1.6-6.8,0.4-14.4,5.7-22.1H-110C-115.8,117.5-118.1,126.9-115.9,134.9z M-0.6,134.6 c-26,34.5-59.2,51.5-102.6,51.5c-35.5,0-56.3-16.5-63.1-35.3c-4.5-12.7-2.9-27.6,5-42.5h-19.5c-8.8,17-10.6,34.1-5,48.6 c8.4,21.9,36.8,39.5,77.7,39.5c47.7,0,86.8-22.3,113.7-59c12.4-17,20.8-28.9,20.8-28.9h-7C19.3,108.2,11.4,118.6-0.6,134.6z"></path> <linearGradient id="Shape_3_" gradientUnits="userSpaceOnUse" x1="-261.4112" y1="192.1574" x2="-261.4112" y2="191.0781" gradientTransform="matrix(276.5652 0 0 -100.486 72185.2344 19308.9238)"> <stop offset="0" style="stop-color:#A99084"></stop> <stop offset="1" style="stop-color:#D6CAC4"></stop> </linearGradient> <path id="Shape_1_" class="st1" d="M-64.5,47.5l39.6,60.7h-9.9L-75.9,45L-64.5,47.5z M-80.6,108.2h12.9l-46.6-71.4l-15.1-3.2 L-80.6,108.2z M-109.8,108.2h14.7L-146.4,30l-17.4-3.8L-109.8,108.2z M-142.8,108.2h16.7l-57.2-86.1l-20.3-4.3L-142.8,108.2z M-180.9,108.2h19.5l-64.6-95.3l-24.4-5.2L-180.9,108.2z M2.8,108.2h8.4L-23,56.3l-9.9-2.2L2.8,108.2z M-14.8,108.2h9.1l-36.9-56 L-53,49.9L-14.8,108.2z M19.3,108.2h7L-5.8,60.1l-8.1-1.8L19.3,108.2z"></path> </g> </svg> 