<svg width="1600" height="1600" viewBox="88.70574233777512 216.34604873506646 167.30790252986705 167.30790252986705" xmlns="http://www.w3.org/2000/svg" xmlns:xlink="http://www.w3.org/1999/xlink"><g class="icon-group" data-width="104.71938720541718" data-height="139.42325210822256" data-x="120.00000000000006" data-y="230.2883739458887"><g id="shape_n5ONhK6MPO" ref="shape_n5ONhK6MPO" key="shape_n5ONhK6MPO" mask="" class=" icon">
                <g transform="translate(120.00000000000006,230.2883739458887) rotate(0,52.35969360270858,69.71162605411128) scale(1,1)" style="opacity: 1;mix-blend-mode: undefined;" filter="">
                  <!--普通元素-->
                  <svg id="svg" version="1.1" width="104.71938720541716" height="139.42325210822256" viewBox="92.35939323606928 42.476483129854614 325.6015864668816 433.5055168701454" xmlns="http://www.w3.org/2000/svg" xmlns:xlink="http://www.w3.org/1999/xlink" class="style-removed" preserveAspectRatio="none" data-parent="shape_n5ONhK6MPO"><path d="M225.000 42.650 C 225.000 42.951,225.635 44.616,226.411 46.349 C 231.637 58.016,232.500 62.927,232.500 81.000 C 232.500 96.747,232.259 99.251,230.092 106.000 C 228.767 110.125,227.304 113.928,226.842 114.450 C 226.379 114.973,226.000 116.071,226.000 116.892 C 226.000 119.761,214.615 137.515,207.342 145.986 C 202.231 151.940,178.000 184.512,178.000 185.429 C 178.000 185.688,176.700 187.835,175.111 190.200 C 169.885 197.980,160.167 216.525,158.526 221.851 C 157.387 225.545,156.241 223.162,155.075 214.678 C 152.786 198.025,154.343 177.639,159.385 158.250 C 160.708 153.163,161.635 149.000,161.445 149.000 C 160.804 149.000,146.923 165.829,141.493 173.190 C 136.028 180.597,124.832 198.224,119.730 207.452 C 115.673 214.789,106.398 234.083,105.525 237.000 C 105.114 238.375,104.183 240.850,103.456 242.500 C 100.726 248.698,98.024 258.403,95.103 272.500 C 93.010 282.603,91.897 296.722,92.542 305.000 C 93.681 319.627,98.756 342.525,102.516 350.000 C 103.208 351.375,105.916 357.000,108.535 362.500 C 113.798 373.556,119.624 382.904,127.857 393.500 C 133.888 401.263,142.007 410.000,143.190 410.000 C 143.611 410.000,144.078 382.372,144.228 348.604 C 144.485 290.626,144.602 287.096,146.338 285.178 C 147.862 283.495,159.611 276.367,180.000 264.755 C 181.925 263.659,187.550 260.400,192.500 257.512 C 197.450 254.624,203.750 251.003,206.500 249.464 C 218.943 242.502,225.154 238.924,234.000 233.622 C 239.225 230.490,246.303 226.556,249.729 224.879 C 255.432 222.089,256.277 221.932,259.729 223.023 C 261.803 223.679,265.075 225.246,267.000 226.506 C 270.511 228.804,276.058 232.002,296.500 243.513 C 321.655 257.679,358.809 279.413,363.000 282.414 L 367.500 285.636 368.000 349.568 L 368.500 413.500 376.198 405.631 C 405.864 375.305,422.120 330.393,417.040 292.791 C 415.439 280.939,409.662 263.259,403.216 250.485 C 400.444 244.993,393.185 231.748,387.085 221.052 C 370.287 191.600,366.430 179.910,367.270 160.996 C 367.739 150.420,367.768 150.312,374.706 133.250 C 375.378 131.596,372.238 131.666,363.588 133.499 C 349.475 136.489,333.633 146.200,321.418 159.348 C 317.338 163.740,314.000 167.708,314.000 168.166 C 314.000 168.625,313.550 169.000,313.000 169.000 C 312.410 169.000,311.998 165.414,311.996 160.250 C 311.989 144.016,308.144 127.099,300.838 111.146 C 290.718 89.051,268.505 66.337,241.544 50.516 C 232.436 45.171,225.000 41.636,225.000 42.650 " stroke="none" fill="#ff7a00" fill-rule="evenodd" stroke-width="0"></path><path d="M245.500 237.888 C 193.622 267.818,180.809 275.249,169.750 281.818 C 162.738 285.984,157.000 289.706,157.000 290.089 C 157.000 290.472,157.764 291.079,158.698 291.438 C 160.902 292.283,195.658 312.305,227.896 331.300 C 241.863 339.530,254.082 346.470,255.048 346.723 C 256.112 347.001,276.276 336.063,306.153 319.001 C 333.294 303.501,355.833 290.504,356.240 290.120 C 356.647 289.735,350.122 285.325,341.740 280.318 C 316.212 265.072,257.903 231.996,256.665 232.059 C 256.024 232.092,251.000 234.715,245.500 237.888 M154.690 299.714 C 154.370 302.816,154.196 330.999,154.304 362.344 L 154.500 419.334 163.500 424.498 C 168.450 427.338,186.675 437.683,204.000 447.486 C 221.325 457.290,239.550 467.712,244.500 470.647 L 253.500 475.982 253.758 414.285 C 253.960 365.768,253.747 352.325,252.758 351.359 C 251.048 349.691,168.030 300.796,157.386 295.189 C 155.377 294.131,155.243 294.355,154.690 299.714 M311.000 321.074 C 285.975 335.397,264.041 348.102,262.257 349.308 L 259.014 351.500 259.007 413.250 C 259.003 447.213,259.270 475.000,259.600 475.000 C 260.337 475.000,271.173 468.956,312.500 445.492 C 330.100 435.500,347.538 425.638,351.250 423.576 L 358.000 419.828 358.000 357.414 C 358.000 323.086,357.663 295.007,357.250 295.016 C 356.838 295.025,336.025 306.751,311.000 321.074 " stroke="none" fill="#000000" fill-rule="evenodd" stroke-width="0"></path></svg>
                </g>
              </g></g></svg>
